Coordinates
version=1
nRows=4
nColumns=107
inDegrees=yes

Units are S.I. units (second, meters, Newtons, ...)
If the header above contains a line with 'inDegrees', this indicates whether rotational values are in degrees (yes) or radians (no).

endheader
time	sternoclavicular_r2	sternoclavicular_r3	unrotscap_r3	unrotscap_r2	acromioclavicular_r2	acromioclavicular_r3	acromioclavicular_r1	unrothum_r1	unrothum_r3	unrothum_r2	elv_angle	shoulder_elv	shoulder1_r2	shoulder_rot	elbow_flexion	pro_sup	deviation	flexion	proximal_distal_r1	proximal_distal_r3	cmc_flexion	cmc_abduction	mp_flexion	ip_flexion	mcp2_flexion	mcp2_abduction	pm2_flexion	md2_flexion	mcp3_flexion	mcp3_abduction	pm3_flexion	md3_flexion	mcp4_flexion	mcp4_abduction	pm4_flexion	md4_flexion	mcp5_flexion	mcp5_abduction	pm5_flexion	md5_flexion	bicpt_tx	bicpt_ty	bicpt_tz	bicpt2_tx	bicpt2_ty	bicpt2_tz	ptpt_tx	ptpt_ty	ptpt_tz	FCUpt_tx	FCUpt_ty	FCUpt_tz	EDCpt_tx	EDCpt_ty	EDCpt_tz	APLpt_tx	APLpt_ty	APLpt_tz	FPLpt_tx	FPLpt_ty	FPLpt_tz	FPLpt2_tx	FPLpt2_ty	FPLpt2_tz	PEC1pt2_tx	PEC1pt2_ty	PEC1pt2_tz	PEC1pt3_tx	PEC1pt3_ty	PEC1pt3_tz	PEC2pt2_tx	PEC2pt2_ty	PEC2pt2_tz	PEC2pt3_tx	PEC2pt3_ty	PEC2pt3_tz	PEC3pt2_tx	PEC3pt2_ty	PEC3pt2_tz	PEC3pt3_tx	PEC3pt3_ty	PEC3pt3_tz	DELT2pt2a_tx	DELT2pt2a_ty	DELT2pt2a_tz	DELT2pt2_tx	DELT2pt2_ty	DELT2pt2_tz	LAT1pt2_tx	LAT1pt2_ty	LAT1pt2_tz	LAT1pt3_tx	LAT1pt3_ty	LAT1pt3_tz	LAT2pt2_tx	LAT2pt2_ty	LAT2pt2_tz	LAT2pt3_tx	LAT2pt3_ty	LAT2pt3_tz	LAT3pt2_tx	LAT3pt2_ty	LAT3pt2_tz	LAT3pt3_tx	LAT3pt3_ty	LAT3pt3_tz
      1.73333333	     -0.31359176	      0.13282267	     -0.13282267	      0.31359176	     -0.06349595	      0.51315195	      0.23065827	     -0.23065827	     -0.51315195	      0.06349595	    101.66579060	     74.24563562	     -1.77440278	    -34.62939662	     28.76200584	     26.23100251	      0.00166727	     -0.41908222	      0.00226045	     -0.20954111	     36.46541516	    -11.92550922	    -21.36140213	      4.23588399	      0.84213478	     -2.15176633	     24.22855267	    -18.69910014	      1.79686529	     -7.26253523	      8.67514042	     11.19017787	     -1.75799634	     -6.93547724	     -6.99304582	     18.74895429	    -21.34886331	    -11.35903100	      1.42343768	      5.01920812	      0.00085136	     -0.03089657	     -0.00483099	      0.01633189	     -0.01801334	     -0.00880702	      0.00561182	     -0.06615326	     -0.00216305	      0.00642324	     -0.18375458	     -0.00021731	     -0.00314771	      0.00084938	      0.00019391	      0.00028173	      0.00011269	      0.00056347	      0.00036062	      0.00108186	      0.00060855	     -0.00001282	     -0.00017292	     -0.00020750	      0.00243361	      0.00853826	      0.00593966	     -0.00796079	      0.01922139	     -0.01823144	      0.00243361	      0.00853826	      0.00593966	      0.00053622	      0.01781897	     -0.00936321	      0.00387453	      0.00474802	      0.01578540	      0.00000000	      0.00736957	      0.00000000	     -0.00697085	     -0.03221438	     -0.00607415	      0.02078690	     -0.00091799	     -0.00987724	     -0.00086620	      0.01451916	     -0.00593966	      0.00239236	      0.02095379	     -0.01732400	     -0.00581591	      0.01258052	     -0.00532094	     -0.01212680	      0.02656346	     -0.02973953	     -0.02276868	      0.01406544	     -0.00713584	     -0.01509663	      0.03068822	     -0.03716410
      1.76666667	     -0.31370074	      0.13286883	     -0.13286883	      0.31370074	     -0.06351802	      0.51333028	      0.23073843	     -0.23073843	     -0.51333028	      0.06351802	    101.65241594	     74.27143820	     -1.77416935	    -34.64402226	     28.76417321	     26.22628418	      0.00175474	     -0.41919291	      0.00237891	     -0.20959645	     36.46829213	    -11.92411130	    -21.35965404	      4.23665737	      0.83168873	     -2.15289127	     24.22631750	    -18.70054200	      1.78903554	     -7.26494441	      8.67377988	     11.18976243	     -1.76265253	     -6.93607998	     -6.99533711	     18.74864048	    -21.34785734	    -11.35911853	      1.42348301	      5.01922541	      0.00085143	     -0.03089681	     -0.00483103	      0.01633166	     -0.01801393	     -0.00880740	      0.00561217	     -0.06615303	     -0.00216267	      0.00642279	     -0.18375466	     -0.00021721	     -0.00314715	      0.00084922	      0.00019389	      0.00028173	      0.00011269	      0.00056347	      0.00036062	      0.00108186	      0.00060854	     -0.00001281	     -0.00017285	     -0.00020742	      0.00243445	      0.00854122	      0.00594172	     -0.00796356	      0.01922807	     -0.01823778	      0.00243445	      0.00854122	      0.00594172	      0.00053641	      0.01782516	     -0.00936646	      0.00387553	      0.00474967	      0.01578790	      0.00000000	      0.00737473	      0.00000000	     -0.00697327	     -0.03222558	     -0.00607843	      0.02079247	     -0.00091850	     -0.00988513	     -0.00086650	      0.01452420	     -0.00594172	      0.00239319	      0.02096107	     -0.01733002	     -0.00581793	      0.01258489	     -0.00532279	     -0.01213101	      0.02657269	     -0.02974986	     -0.02277659	      0.01407032	     -0.00713832	     -0.01510187	      0.03069889	     -0.03717701
      1.80000000	     -0.31483566	      0.13334953	     -0.13334953	      0.31483566	     -0.06374782	      0.51518744	      0.23157321	     -0.23157321	     -0.51518744	      0.06374782	    101.31448658	     74.54014215	     -1.76827137	    -32.87107145	     28.64179234	     25.02359464	      0.00744135	     -0.40050330	      0.01005414	     -0.20025165	     37.20201542	    -12.96127954	    -19.61265752	      3.59626611	     -2.74984090	     -2.85534923	     24.07181600	    -19.74619380	     -0.13379339	     -8.04982957	      8.20964558	     11.50130723	     -3.24165911	     -6.95006935	     -8.37238131	     19.55992017	    -22.29566153	    -11.05880879	      0.90369525	      4.99747240	      0.00084738	     -0.03088279	     -0.00482877	      0.01628988	     -0.01798068	     -0.00891155	      0.00570104	     -0.06609557	     -0.00206578	      0.00630704	     -0.18377477	     -0.00019565	     -0.00300282	      0.00080563	      0.00019316	      0.00027544	      0.00011018	      0.00055088	      0.00035256	      0.00105769	      0.00059495	     -0.00001263	     -0.00016117	     -0.00019340	      0.00244326	      0.00857212	      0.00596322	     -0.00799237	      0.01929763	     -0.01830376	      0.00244326	      0.00857212	      0.00596322	      0.00053835	      0.01788965	     -0.00940035	      0.00388587	      0.00476685	      0.01581391	      0.00000000	      0.00742853	      0.00000000	     -0.00699850	     -0.03234217	     -0.00612312	      0.02009565	     -0.00085623	     -0.00894546	     -0.00086964	      0.01457675	     -0.00596322	      0.00240185	      0.02103690	     -0.01739271	     -0.00583898	      0.01263042	     -0.00534205	     -0.01217490	      0.02666883	     -0.02985749	     -0.02285900	      0.01412123	     -0.00716414	     -0.01515651	      0.03080995	     -0.03731151
      1.83333333	     -0.31482717	      0.13334593	     -0.13334593	      0.31482717	     -0.06374610	      0.51517355	      0.23156696	     -0.23156696	     -0.51517355	      0.06374610	    101.32574315	     74.53813190	     -1.76846783	    -32.86608294	     28.64754881	     25.02360830	      0.00742722	     -0.40049720	      0.01003463	     -0.20024860	     37.20161899	    -12.96094100	    -19.61292416	      3.59653064	     -2.75468850	     -2.85577314	     24.07074295	    -19.74688570	     -0.13259787	     -8.04985385	      8.20984013	     11.50124446	     -3.23869750	     -6.94966542	     -8.37132610	     19.55995359	    -22.29493116	    -11.05815167	      0.90411749	      4.99752488	      0.00084757	     -0.03088345	     -0.00482888	      0.01628987	     -0.01798225	     -0.00891154	      0.00570104	     -0.06609557	     -0.00206579	      0.00630705	     -0.18377476	     -0.00019565	     -0.00300283	      0.00080563	      0.00019315	      0.00027544	      0.00011018	      0.00055088	      0.00035256	      0.00105769	      0.00059495	     -0.00001263	     -0.00016117	     -0.00019341	      0.00244320	      0.00857189	      0.00596306	     -0.00799215	      0.01929711	     -0.01830327	      0.00244320	      0.00857189	      0.00596306	      0.00053833	      0.01788917	     -0.00940009	      0.00388579	      0.00476672	      0.01581372	      0.00000000	      0.00742813	      0.00000000	     -0.00699831	     -0.03234129	     -0.00612279	      0.02009361	     -0.00085605	     -0.00894288	     -0.00086961	      0.01457636	     -0.00596306	      0.00240179	      0.02103633	     -0.01739225	     -0.00583883	      0.01263008	     -0.00534190	     -0.01217457	      0.02666811	     -0.02985669	     -0.02285838	      0.01412085	     -0.00716395	     -0.01515610	      0.03080912	     -0.03731051
